<svg id="ac025dd5-ea18-481f-b776-479acbcc3aad" data-name="Layer 1" xmlns="http://www.w3.org/2000/svg" xmlns:xlink="http://www.w3.org/1999/xlink" viewBox="0 0 601.38 739.64"><defs><clipPath id="abf74b9a-8b01-4612-a347-2c3e27a72c0e" transform="translate(34.1 -0.23)"><rect id="f16330d4-304b-4fa1-858f-a28cfdaecca8" data-name="SVGID" x="34.04" y="267.93" width="19.73" height="19.73" fill="none"/></clipPath><clipPath id="b368dea9-f9e8-4a5e-921f-b8853fd4a47e" transform="translate(34.1 -0.23)"><rect id="a4b41be4-b2e4-412f-acb8-049c28db3d54" data-name="SVGID" x="56.17" y="710.29" width="29.84" height="29.84" fill="none"/></clipPath><clipPath id="a4635035-810c-4e98-961a-28056ade6fbb" transform="translate(34.1 -0.23)"><rect id="ace0245b-2f89-475c-abd2-326acd71a655" data-name="SVGID" x="351.03" y="711.51" width="15.92" height="16.22" fill="none"/></clipPath><clipPath id="b42d9277-ed7d-4a29-abd4-2b9e3ad51c09" transform="translate(34.1 -0.23)"><rect id="a2f93dde-dcbc-4b10-bf88-d3979e4279cf" data-name="SVGID" x="3.97" y="179.93" width="553.17" height="548.46" fill="none"/></clipPath><clipPath id="b6f5167c-6d46-4f65-9fa0-2a4bd84a9623" transform="translate(34.1 -0.23)"><rect id="fb9b6d3b-09fd-4514-9e73-8d4714dc5feb" data-name="SVGID" x="3.97" y="179.94" width="553.17" height="548.46" fill="none"/></clipPath><clipPath id="a5f39935-1b2d-4961-98bb-adabb70b4161" transform="translate(34.1 -0.23)"><rect id="a08ef3d8-a3c7-4cdd-b1ae-75242c55b9db" data-name="SVGID" x="394.12" y="211.74" width="48.19" height="48.2" fill="none"/></clipPath></defs><title>background</title><path d="M198.71,668.74c-29.74-4.25-53.15-21-70-50.12" transform="translate(34.1 -0.23)" fill="none" stroke="#13110c" stroke-linecap="round" stroke-linejoin="round" stroke-width="0.73" stroke-dasharray="0.29 5.74"/><path d="M353.48,140.89c29.67,3.81,40.45,34.25,48.31,56.47" transform="translate(34.1 -0.23)" fill="none" stroke="#13110c" stroke-linecap="round" stroke-linejoin="round" stroke-width="0.73" stroke-dasharray="0.29 5.74"/><path d="M11.4,432.08c-5.65-12.92-7.19-27.5-1.6-45.28,7.6-24.18,24.9-40.93,47-53.78" transform="translate(34.1 -0.23)" fill="none" stroke="#13110c" stroke-linecap="round" stroke-linejoin="round" stroke-width="0.73" stroke-dasharray="0.29 5.74"/><path d="M265.34,164.94l-2.36,6.9a2.26,2.26,0,0,0,2.58,3l7.16-1.4a2.27,2.27,0,0,0,1.27-3.72l-4.79-5.5A2.27,2.27,0,0,0,265.34,164.94Z" transform="translate(34.1 -0.23)" fill="none" stroke="#13110c" stroke-linecap="round" stroke-linejoin="round" stroke-width="0.73"/><g opacity="0.2"><g clip-path="url(#abf74b9a-8b01-4612-a347-2c3e27a72c0e)"><path d="M53.15,277.8a9.25,9.25,0,1,1-9.24-9.24A9.25,9.25,0,0,1,53.15,277.8Z" transform="translate(34.1 -0.23)" fill="none" stroke="#13110c" stroke-linecap="round" stroke-linejoin="round" stroke-width="0.73"/></g></g><g opacity="0.2"><g clip-path="url(#b368dea9-f9e8-4a5e-921f-b8853fd4a47e)"><path d="M85.39,725.21a14.3,14.3,0,1,1-14.3-14.29A14.3,14.3,0,0,1,85.39,725.21Z" transform="translate(34.1 -0.23)" fill="none" stroke="#13110c" stroke-linecap="round" stroke-linejoin="round" stroke-width="0.73"/></g></g><path d="M-32.28,526.69c-14.37-38.75,60.71-59.45,67.9-23.17,2,10-19.72,35.86-27.38,40.47-18.81,11.33-32,5.68-40.52-17.3" transform="translate(34.1 -0.23)" fill="#70c1c6"/><path d="M508.75,532.22c-43.16,6.62-62.69-31.66-66.65-67.28-2.74-24.6,16.69-74.54,49.1-71.49,14.43,1.36,22.05,13.1,29.42,23.95,12.48,18.41,35.35,36.12,43,52.73,13.78,30-12.57,55.6-54.85,62.09" transform="translate(34.1 -0.23)" fill="#70c1c6"/><line x1="179.99" y1="703.59" x2="182.62" y2="700.96" fill="none" stroke="#13110c" stroke-linecap="round" stroke-linejoin="round" stroke-width="0.73"/><line x1="187.88" y1="695.7" x2="190.52" y2="693.07" fill="none" stroke="#13110c" stroke-linecap="round" stroke-linejoin="round" stroke-width="0.73"/><line x1="190.52" y1="703.59" x2="187.89" y2="700.96" fill="none" stroke="#13110c" stroke-linecap="round" stroke-linejoin="round" stroke-width="0.73"/><line x1="182.62" y1="695.7" x2="179.99" y2="693.07" fill="none" stroke="#13110c" stroke-linecap="round" stroke-linejoin="round" stroke-width="0.73"/><g opacity="0.2"><g clip-path="url(#a4635035-810c-4e98-961a-28056ade6fbb)"><path d="M351.71,715.62l1.87,9.16a2.9,2.9,0,0,0,4.77,1.59l7-6.19a2.9,2.9,0,0,0-1-4.93l-8.86-3A2.91,2.91,0,0,0,351.71,715.62Z" transform="translate(34.1 -0.23)" fill="none" stroke="#13110c" stroke-linecap="round" stroke-linejoin="round" stroke-width="0.73"/></g></g><g opacity="0.15"><g clip-path="url(#b42d9277-ed7d-4a29-abd4-2b9e3ad51c09)"><g clip-path="url(#b6f5167c-6d46-4f65-9fa0-2a4bd84a9623)"><path d="M305.19,624.6c39.46-18.36,107.17-24.5,146.81-16.53,38.39,7.72,41.82,49,85,16.4,40.51-30.64,9.19-85.93-.62-125.79-13.49-54.81-16.87-59.57-54-108.8-34.85-46.17-42.79-69.17-94.47-94.5-37.55-18.4-64-32.28-93.25-56.84-12.44-10.45-11.21-37-30-43.45-16.95-5.78-33.83,18-47.88,16.8-44.4-3.7-64.83-36.47-100-31.43C24.05,193.74,45,350.64,74.07,401.88c23.08,40.62,54.82,42.82,29.5,98.54-14.3,31.47-53.06,49.81-79.3,88.85C6.18,616.2-2.87,656.89,10.05,683.33,20.63,705,63,696,91.38,697.78,136,700.52,159,747.92,207.92,719.17c38.94-22.87,52.07-73.54,97.27-94.57" transform="translate(34.1 -0.23)" fill="#81cbd5"/></g></g></g><g opacity="0.2"><g clip-path="url(#a5f39935-1b2d-4961-98bb-adabb70b4161)"><path d="M441.69,235.84a23.48,23.48,0,1,1-23.48-23.48A23.47,23.47,0,0,1,441.69,235.84Z" transform="translate(34.1 -0.23)" fill="none" stroke="#13110c" stroke-linecap="round" stroke-linejoin="round" stroke-width="0.73"/></g></g><path d="M106.37.23v10a25.2,25.2,0,0,0,25.2,25.2H324.74A25.21,25.21,0,0,0,350,10.19V.23Z" transform="translate(34.1 -0.23)" fill="none"/></svg>